<?xml version="1.0" encoding="utf-8"?>
<!-- Generator: Adobe Illustrator 16.0.0, SVG Export Plug-In . SVG Version: 6.00 Build 0)  -->
<!DOCTYPE svg PUBLIC "-//W3C//DTD SVG 1.1//EN" "http://www.w3.org/Graphics/SVG/1.1/DTD/svg11.dtd">
<svg version="1.1" id="Layer_1" xmlns="http://www.w3.org/2000/svg" xmlns:xlink="http://www.w3.org/1999/xlink" x="0px" y="0px"
	 width="26.693px" height="28.333px" viewBox="0 0 26.693 28.333" enable-background="new 0 0 26.693 28.333" xml:space="preserve">
<path fill="#FFFFFF" d="M22.36,19.484c1.182-1.299,2.146-2.914,2.873-4.813c0.039-0.051,0.068-0.111,0.085-0.18
	c0.005-0.025,0.009-0.047,0.01-0.072c1.379-3.758,1.365-7.256,1.365-7.403l0,0c-0.002-0.265-0.216-0.478-0.479-0.479l0,0
	c-0.158-0.002-3.763-0.014-7.58,1.428c-1.57-4.484-4.792-7.688-4.933-7.825l0,0c-0.188-0.187-0.49-0.187-0.678,0l0,0
	c-0.142,0.138-3.367,3.345-4.937,7.834C4.257,6.519,0.637,6.533,0.48,6.536l0,0C0.216,6.538,0.002,6.75,0,7.014l0,0
	c0,0.082-0.01,2.039,0.552,4.604c0.498,2.264,1.556,5.414,3.776,7.861l-0.009,0.008l0.007,0.006
	c-2.208,2.201-3.243,4.918-3.288,5.039l0,0c-0.092,0.248,0.03,0.521,0.276,0.619l0,0c0.059,0.021,1.438,0.561,3.358,0.818
	c0.653,0.09,1.291,0.133,1.907,0.133c1.604,0,3.064-0.297,4.31-0.877c0.908,1.752,2.08,2.916,2.133,2.969l0,0
	c0.188,0.186,0.49,0.186,0.678,0l0,0c0.053-0.053,1.223-1.211,2.128-2.961c1.241,0.574,2.694,0.867,4.289,0.867
	c0.62,0,1.261-0.045,1.917-0.135c1.914-0.258,3.289-0.795,3.348-0.816l0,0c0.246-0.098,0.368-0.373,0.276-0.619l0,0
	C25.613,24.412,24.576,21.688,22.36,19.484z M14.657,23.352c0.311-0.016,0.623-0.039,0.941-0.068
	c-0.062,0.201-0.133,0.404-0.213,0.609C15.13,23.727,14.888,23.547,14.657,23.352z M11.335,23.877
	c-0.078-0.197-0.147-0.396-0.209-0.594c0.308,0.031,0.613,0.053,0.914,0.068C11.816,23.543,11.581,23.717,11.335,23.877z
	 M5.049,18.834c-1.127-1.24-1.937-2.686-2.517-4.092c1.612-0.324,3.251-0.398,4.884-0.221c0.148,0.881,0.402,1.742,0.756,2.574
	c-0.014,0.006-0.03,0.01-0.044,0.014c-0.051,0.018-0.104,0.033-0.156,0.051c-0.035,0.012-0.069,0.023-0.104,0.037
	c-0.049,0.018-0.099,0.035-0.148,0.053c-0.036,0.012-0.071,0.027-0.106,0.041c-0.049,0.021-0.097,0.039-0.145,0.059
	c-0.036,0.016-0.071,0.029-0.106,0.045c-0.048,0.02-0.098,0.043-0.146,0.063c-0.035,0.018-0.069,0.031-0.104,0.047
	c-0.049,0.023-0.099,0.047-0.147,0.072c-0.034,0.016-0.065,0.031-0.099,0.047c-0.051,0.027-0.104,0.053-0.156,0.082
	c-0.03,0.016-0.058,0.029-0.088,0.047c-0.062,0.035-0.122,0.07-0.184,0.105c-0.02,0.01-0.039,0.021-0.059,0.033
	c-0.08,0.049-0.159,0.096-0.239,0.145c-0.02,0.014-0.037,0.025-0.057,0.037c-0.06,0.039-0.12,0.078-0.181,0.117
	c-0.028,0.02-0.057,0.039-0.086,0.061c-0.05,0.033-0.099,0.068-0.149,0.104c-0.032,0.021-0.063,0.047-0.094,0.068
	c-0.046,0.033-0.092,0.066-0.138,0.104c-0.032,0.023-0.065,0.051-0.097,0.076c-0.044,0.035-0.089,0.068-0.133,0.104
	c-0.034,0.027-0.065,0.053-0.098,0.08C5.09,18.801,5.069,18.816,5.049,18.834z M12.689,11.959c-0.002,0.002-0.004,0.004-0.005,0.006
	c-0.014,0.017-0.028,0.035-0.041,0.05c-0.033,0.041-0.067,0.081-0.101,0.122c-0.018,0.021-0.036,0.044-0.053,0.066
	c-0.028,0.034-0.059,0.071-0.087,0.107c-0.02,0.023-0.037,0.048-0.055,0.072c-0.026,0.035-0.055,0.07-0.082,0.105
	c-0.018,0.025-0.037,0.049-0.055,0.074c-0.027,0.036-0.053,0.07-0.078,0.107c-0.018,0.025-0.035,0.051-0.053,0.076
	c-0.027,0.037-0.053,0.075-0.08,0.112c-0.016,0.022-0.032,0.046-0.047,0.069c-0.03,0.044-0.059,0.087-0.089,0.131
	c-0.01,0.016-0.021,0.029-0.03,0.046c-0.002,0.002-0.004,0.005-0.005,0.007c-0.041,0.063-0.08,0.124-0.119,0.186
	c-0.007,0.013-0.016,0.024-0.023,0.037c-0.032,0.049-0.062,0.102-0.092,0.152c-0.014,0.023-0.026,0.047-0.041,0.069
	c-0.025,0.041-0.048,0.081-0.073,0.124c-0.014,0.025-0.028,0.051-0.044,0.078c-0.021,0.039-0.044,0.078-0.066,0.117
	c-0.014,0.025-0.028,0.053-0.044,0.08c-0.021,0.039-0.042,0.078-0.062,0.117c-0.014,0.026-0.028,0.053-0.042,0.08
	c-0.021,0.041-0.041,0.081-0.062,0.122c-0.011,0.022-0.023,0.046-0.034,0.069l-0.009-0.004l-0.002,0.006
	c-0.918-0.309-1.871-0.538-2.839-0.688c-0.138-1.402,0.002-2.873,0.418-4.383C10.278,9.987,11.618,10.885,12.689,11.959z
	 M18.026,9.262c0.419,1.518,0.561,2.996,0.421,4.404c-0.722,0.111-1.365,0.256-1.919,0.41c-0.34,0.094-0.657,0.19-0.951,0.291
	c-0.012-0.025-0.025-0.051-0.039-0.078c-0.02-0.041-0.041-0.08-0.061-0.121c-0.014-0.027-0.027-0.055-0.041-0.082
	c-0.021-0.039-0.041-0.078-0.063-0.115c-0.014-0.028-0.029-0.055-0.044-0.084c-0.021-0.038-0.042-0.075-0.063-0.114
	c-0.017-0.026-0.03-0.056-0.047-0.082c-0.022-0.041-0.045-0.08-0.068-0.118c-0.014-0.025-0.028-0.05-0.044-0.074
	c-0.028-0.049-0.058-0.095-0.087-0.143c-0.012-0.016-0.021-0.034-0.03-0.049c-0.039-0.063-0.078-0.124-0.119-0.186
	c-0.013-0.021-0.026-0.039-0.039-0.059c-0.028-0.043-0.057-0.085-0.085-0.128c-0.016-0.024-0.033-0.048-0.05-0.072
	c-0.026-0.036-0.051-0.073-0.078-0.112c-0.019-0.023-0.037-0.051-0.055-0.076c-0.024-0.035-0.052-0.07-0.078-0.105
	c-0.021-0.025-0.037-0.051-0.058-0.076c-0.025-0.035-0.053-0.07-0.08-0.104c-0.02-0.024-0.037-0.049-0.057-0.074
	c-0.028-0.035-0.057-0.072-0.085-0.107c-0.018-0.023-0.037-0.047-0.055-0.067c-0.033-0.041-0.065-0.08-0.099-0.12
	c-0.014-0.018-0.03-0.036-0.044-0.053c-0.002-0.004-0.005-0.006-0.007-0.01C15.081,10.879,16.431,9.974,18.026,9.262z M9.283,17.203
	L9.283,17.203c-0.397-0.816-0.684-1.668-0.857-2.541c0.786,0.137,1.56,0.33,2.31,0.578c-0.38,0.98-0.639,2.043-0.773,3.17
	c-0.225-0.348-0.427-0.703-0.607-1.061C9.331,17.301,9.308,17.254,9.283,17.203z M13.806,13.274
	c0.011,0.016,0.023,0.032,0.034,0.048c0.028,0.039,0.055,0.078,0.083,0.119c0.014,0.021,0.026,0.039,0.041,0.06
	c0.025,0.037,0.049,0.073,0.073,0.11c0.014,0.021,0.026,0.041,0.041,0.062c0.025,0.037,0.048,0.074,0.073,0.113
	c0.012,0.02,0.024,0.039,0.037,0.059c0.026,0.043,0.053,0.089,0.08,0.131c0.009,0.015,0.016,0.027,0.025,0.041
	c0.034,0.059,0.069,0.117,0.101,0.175c0.007,0.013,0.014,0.024,0.021,0.037c0.026,0.046,0.051,0.092,0.076,0.138
	c0.01,0.021,0.021,0.041,0.034,0.063c0.021,0.039,0.042,0.078,0.062,0.117c0.014,0.023,0.023,0.043,0.036,0.066
	c0.017,0.031,0.032,0.063,0.046,0.094c-0.57,0.232-0.993,0.445-1.248,0.582l-0.055-0.041l-0.042,0.031
	c-0.011-0.004-0.021-0.01-0.03-0.016c0,0,0,0-0.001,0c-0.034-0.018-0.069-0.037-0.108-0.057c-0.002-0.002-0.004-0.002-0.005-0.004
	c-0.016-0.008-0.034-0.018-0.051-0.027c-0.005,0-0.009-0.004-0.015-0.006c-0.016-0.008-0.03-0.016-0.046-0.023
	c-0.005-0.002-0.011-0.004-0.018-0.01c-0.016-0.006-0.032-0.016-0.048-0.023c-0.005-0.004-0.012-0.006-0.018-0.01
	c-0.018-0.01-0.036-0.018-0.053-0.025c-0.005-0.002-0.011-0.006-0.014-0.008c-0.048-0.023-0.097-0.045-0.148-0.07
	c-0.004-0.002-0.007-0.004-0.011-0.006c-0.021-0.01-0.044-0.02-0.065-0.029c-0.007-0.004-0.016-0.008-0.023-0.01
	c-0.02-0.01-0.039-0.018-0.059-0.027c-0.009-0.004-0.018-0.01-0.028-0.012c-0.02-0.01-0.037-0.018-0.057-0.025
	c-0.011-0.004-0.02-0.01-0.03-0.012c-0.02-0.01-0.039-0.018-0.06-0.027c-0.011-0.002-0.02-0.01-0.03-0.012
	c-0.023-0.012-0.046-0.02-0.071-0.029c-0.007-0.004-0.014-0.006-0.021-0.01c-0.032-0.014-0.064-0.025-0.096-0.041
	c-0.003-0.002-0.007-0.004-0.012-0.006c-0.028-0.012-0.057-0.021-0.085-0.035c-0.011-0.004-0.021-0.008-0.032-0.012
	c-0.016-0.008-0.032-0.012-0.049-0.02c0.041-0.08,0.082-0.16,0.124-0.24c0.009-0.016,0.016-0.031,0.024-0.048
	c0.041-0.076,0.083-0.151,0.126-0.229c0.007-0.014,0.016-0.027,0.025-0.041c0.042-0.072,0.083-0.144,0.127-0.213
	c0.005-0.008,0.009-0.015,0.014-0.021c0.046-0.074,0.094-0.148,0.142-0.223c0.01-0.017,0.02-0.033,0.03-0.047
	c0.048-0.072,0.098-0.146,0.147-0.218c0.007-0.011,0.014-0.021,0.021-0.03c0.046-0.066,0.094-0.133,0.143-0.199
	c0.009-0.012,0.016-0.023,0.025-0.034c0.051-0.071,0.104-0.14,0.159-0.209c0.011-0.015,0.023-0.028,0.034-0.044
	c0.055-0.069,0.11-0.139,0.167-0.207c0-0.002,0.002-0.002,0.003-0.004c0.014,0.019,0.028,0.035,0.044,0.054
	c0.016,0.019,0.032,0.039,0.048,0.058c0.03,0.037,0.058,0.073,0.086,0.11c0.013,0.017,0.027,0.034,0.039,0.049
	c0.039,0.052,0.08,0.103,0.117,0.154c0.001,0.001,0.003,0.003,0.005,0.007C13.726,13.165,13.765,13.219,13.806,13.274z
	 M15.056,15.594c0.226,0.582,0.403,1.195,0.537,1.836c-0.006-0.006-0.012-0.016-0.019-0.021c-0.013-0.018-0.026-0.035-0.039-0.055
	c-0.007-0.008-0.014-0.018-0.021-0.027c-0.014-0.018-0.027-0.033-0.039-0.051c-0.017-0.021-0.03-0.041-0.047-0.061
	c-0.018-0.023-0.037-0.049-0.055-0.07c-0.005-0.008-0.012-0.018-0.018-0.023c0,0,0,0-0.002-0.002c-0.01-0.012-0.02-0.025-0.03-0.035
	c-0.021-0.021-0.037-0.047-0.058-0.068c-0.016-0.021-0.033-0.041-0.051-0.061c-0.011-0.014-0.02-0.021-0.029-0.037
	c-0.002-0.002-0.006-0.004-0.008-0.008c-0.004-0.006-0.01-0.012-0.016-0.018c-0.002-0.002-0.003-0.004-0.005-0.008
	c-0.019-0.02-0.036-0.041-0.053-0.061c-0.021-0.023-0.041-0.045-0.06-0.066c-0.017-0.018-0.033-0.035-0.049-0.053
	c-0.005-0.008-0.012-0.014-0.018-0.02c-0.016-0.02-0.034-0.037-0.051-0.057c-0.019-0.02-0.037-0.039-0.056-0.059
	c-0.021-0.023-0.042-0.045-0.063-0.068c-0.002,0-0.002-0.002-0.002-0.002c-0.008-0.008-0.015-0.016-0.021-0.021
	c-0.011-0.014-0.021-0.021-0.031-0.033c-0.021-0.023-0.045-0.043-0.068-0.066c-0.02-0.02-0.038-0.039-0.059-0.059
	c-0.012-0.012-0.023-0.023-0.035-0.035c-0.009-0.01-0.02-0.018-0.027-0.027c-0.002-0.002-0.004-0.004-0.006-0.006
	c-0.02-0.02-0.038-0.037-0.06-0.057c-0.022-0.021-0.048-0.043-0.073-0.066c-0.02-0.018-0.037-0.035-0.057-0.051
	c-0.003-0.004-0.007-0.008-0.011-0.012c-0.023-0.021-0.046-0.041-0.069-0.063c-0.018-0.016-0.036-0.031-0.053-0.047
	C14.457,15.852,14.732,15.727,15.056,15.594z M11.155,19.404c0.097,0.324,0.203,0.637,0.32,0.938c-0.16-0.17-0.313-0.344-0.46-0.516
	C11.055,19.686,11.103,19.543,11.155,19.404z M13.349,18.246c0.444,0.16,0.897,0.354,1.353,0.584
	c-0.322,1.178-0.775,2.199-1.353,3.051c-0.577-0.852-1.03-1.873-1.353-3.051C12.452,18.602,12.905,18.406,13.349,18.246z
	 M15.556,19.365c0.002,0.004,0.002,0.01,0.004,0.014c0.008,0.018,0.015,0.037,0.021,0.055c0.01,0.023,0.018,0.047,0.025,0.07
	c0.007,0.02,0.013,0.037,0.02,0.057c0.01,0.021,0.016,0.047,0.023,0.07c0.005,0.018,0.013,0.035,0.018,0.053
	c0.008,0.025,0.016,0.051,0.023,0.074c0.005,0.018,0.01,0.033,0.016,0.053c0.002,0.004,0.003,0.01,0.006,0.016
	c-0.162,0.189-0.33,0.377-0.505,0.564C15.334,20.063,15.45,19.721,15.556,19.365z M13.362,16.479
	c0.011,0.008,0.021,0.018,0.032,0.025c0.026,0.021,0.051,0.045,0.078,0.066c0.016,0.014,0.034,0.027,0.05,0.041
	c0.024,0.021,0.047,0.043,0.072,0.063c0.018,0.016,0.034,0.031,0.05,0.045c0.023,0.021,0.046,0.041,0.069,0.063
	c0.014,0.014,0.028,0.025,0.044,0.041c0.003,0.002,0.007,0.006,0.011,0.01c0.021,0.021,0.041,0.037,0.06,0.059
	c0.012,0.012,0.025,0.021,0.037,0.033c0.007,0.008,0.012,0.014,0.02,0.02c0.02,0.018,0.037,0.037,0.057,0.055
	c0.011,0.012,0.021,0.02,0.03,0.031c0.009,0.008,0.016,0.016,0.025,0.021c0.018,0.02,0.036,0.037,0.055,0.057
	c0.009,0.01,0.016,0.018,0.024,0.023c0.009,0.012,0.02,0.021,0.028,0.031c0.018,0.018,0.036,0.037,0.053,0.055
	c0.007,0.008,0.014,0.016,0.02,0.021c0.011,0.01,0.021,0.021,0.032,0.033c0.018,0.018,0.036,0.037,0.051,0.057
	c0.005,0.006,0.011,0.01,0.014,0.016c0.013,0.014,0.023,0.027,0.036,0.039c0.018,0.021,0.034,0.037,0.051,0.059
	c0.003,0.002,0.007,0.006,0.011,0.012c0.012,0.014,0.024,0.029,0.037,0.043c0.016,0.02,0.034,0.039,0.049,0.059
	c0.002,0.002,0.004,0.006,0.008,0.008c0.012,0.016,0.025,0.029,0.039,0.045c0.016,0.02,0.032,0.041,0.049,0.061
	c0.002,0.002,0.002,0.002,0.002,0.004c0.01,0.012,0.017,0.021,0.025,0.031c-0.363-0.162-0.722-0.307-1.076-0.426
	c-0.003-0.002-0.009-0.002-0.012-0.004c-0.009-0.004-0.018-0.006-0.027-0.008c-0.007-0.002-0.014-0.004-0.021-0.006
	c-0.009-0.002-0.018-0.004-0.027-0.004c-0.007-0.002-0.014-0.002-0.021-0.004c-0.009,0-0.016-0.002-0.025-0.002
	c-0.007,0-0.016,0-0.023,0c-0.007,0-0.016,0-0.023,0c-0.009,0-0.016,0.002-0.025,0.002c-0.007,0-0.014,0.002-0.021,0.002
	c-0.009,0.002-0.018,0.002-0.027,0.004c-0.007,0.002-0.014,0.004-0.02,0.006c-0.009,0.002-0.018,0.006-0.026,0.008
	c-0.003,0.002-0.009,0.002-0.013,0.004c-0.341,0.117-0.688,0.252-1.037,0.408l0.028-0.033C12.515,17.248,12.91,16.854,13.362,16.479
	z M10.843,21.084c0.398,0.422,0.831,0.836,1.294,1.236c-0.416-0.043-0.823-0.105-1.216-0.188
	C10.886,21.779,10.859,21.43,10.843,21.084z M15.849,21.117c-0.016,0.332-0.041,0.672-0.075,1.016
	c-0.382,0.078-0.775,0.139-1.179,0.184C15.042,21.926,15.462,21.525,15.849,21.117z M11.646,15.572c0.005,0,0.009,0.002,0.014,0.004
	c0.044,0.018,0.087,0.037,0.129,0.053c0.007,0.004,0.016,0.008,0.023,0.01c0.041,0.018,0.082,0.033,0.122,0.051
	c0.004,0.002,0.007,0.004,0.011,0.004c0.041,0.018,0.082,0.035,0.121,0.051c0.007,0.004,0.016,0.008,0.023,0.012
	c0.037,0.016,0.074,0.031,0.11,0.047c0.009,0.004,0.016,0.008,0.023,0.012c0.035,0.016,0.071,0.031,0.103,0.047
	c0.003,0.002,0.009,0.004,0.012,0.006c0.032,0.014,0.062,0.029,0.092,0.043c0.005,0.002,0.01,0.006,0.016,0.008
	c0.018,0.008,0.036,0.018,0.053,0.025c-0.334,0.295-0.641,0.602-0.912,0.914h-0.005l-0.143,0.176l0,0l0,0
	c-0.123,0.148-0.237,0.299-0.345,0.453C11.225,16.818,11.409,16.178,11.646,15.572z M16.728,18.393
	c-0.01-0.078-0.021-0.158-0.03-0.236c-0.003-0.029-0.009-0.061-0.013-0.09c-0.01-0.07-0.021-0.143-0.031-0.213
	c-0.005-0.029-0.01-0.059-0.014-0.088c-0.017-0.096-0.032-0.191-0.051-0.287c0-0.006,0-0.01,0-0.016
	c-0.019-0.09-0.037-0.182-0.056-0.27c-0.005-0.029-0.012-0.061-0.021-0.088c-0.014-0.068-0.029-0.139-0.045-0.205
	c-0.008-0.027-0.013-0.059-0.021-0.084c-0.022-0.092-0.044-0.186-0.069-0.277c0-0.004-0.002-0.006-0.003-0.01
	c-0.022-0.088-0.048-0.178-0.073-0.264c-0.006-0.029-0.016-0.057-0.024-0.084c-0.021-0.064-0.039-0.135-0.06-0.197
	c-0.01-0.027-0.019-0.057-0.025-0.082c-0.028-0.088-0.059-0.178-0.088-0.266c0-0.002-0.002-0.004-0.002-0.006
	c-0.03-0.086-0.063-0.172-0.094-0.258c-0.01-0.027-0.021-0.051-0.031-0.078c-0.004-0.012-0.01-0.025-0.014-0.039
	c0.266-0.088,0.553-0.176,0.856-0.26c0.437-0.119,0.929-0.232,1.478-0.326c-0.056,0.271-0.119,0.539-0.195,0.805
	C17.755,16.594,17.189,17.645,16.728,18.393z M5.913,19.379c0.018-0.014,0.034-0.025,0.051-0.039
	c0.044-0.033,0.088-0.068,0.133-0.102c0.023-0.018,0.046-0.033,0.069-0.049c0.039-0.027,0.08-0.059,0.119-0.084
	c0.025-0.02,0.05-0.035,0.075-0.053c0.039-0.025,0.076-0.055,0.115-0.078c0.025-0.018,0.05-0.033,0.074-0.051
	c0.039-0.023,0.078-0.049,0.117-0.072c0.025-0.018,0.048-0.029,0.072-0.047c0.042-0.025,0.085-0.053,0.127-0.076
	c0.021-0.014,0.042-0.023,0.064-0.037c0.059-0.033,0.117-0.064,0.175-0.098c0.005-0.004,0.011-0.008,0.018-0.01
	c0.064-0.035,0.129-0.066,0.195-0.1c0.02-0.012,0.039-0.021,0.06-0.029c0.046-0.021,0.09-0.045,0.136-0.064
	c0.025-0.014,0.05-0.021,0.075-0.033c0.041-0.021,0.081-0.037,0.124-0.057c0.027-0.01,0.053-0.021,0.078-0.031
	c0.041-0.02,0.082-0.033,0.12-0.051c0.027-0.012,0.053-0.021,0.08-0.031c0.041-0.018,0.083-0.031,0.124-0.047
	c0.025-0.01,0.051-0.02,0.076-0.027c0.046-0.018,0.09-0.029,0.136-0.047c0.021-0.006,0.044-0.016,0.065-0.021
	c0.067-0.02,0.135-0.043,0.202-0.061c0.005,0.01,0.01,0.018,0.014,0.025c0.035,0.068,0.071,0.135,0.108,0.201
	c0.005,0.01,0.012,0.021,0.018,0.031c0.041,0.072,0.082,0.145,0.124,0.219c0.009,0.016,0.018,0.031,0.028,0.047
	c0.044,0.074,0.086,0.146,0.133,0.221c0.001,0.002,0.003,0.006,0.007,0.01c0.044,0.07,0.089,0.143,0.135,0.215
	c0.009,0.014,0.018,0.027,0.026,0.043c0.046,0.072,0.094,0.145,0.144,0.215c0.007,0.014,0.016,0.023,0.025,0.035
	c0.046,0.068,0.092,0.135,0.14,0.203c0.005,0.008,0.011,0.016,0.018,0.023c0.051,0.07,0.103,0.143,0.154,0.213
	c0.01,0.014,0.021,0.027,0.032,0.043c0.053,0.07,0.106,0.141,0.161,0.211c0,0.002,0.001,0.002,0.001,0.004c0,0.018,0,0.035,0,0.055
	c0,0.027,0,0.057-0.001,0.084c0,0.055-0.002,0.109-0.002,0.164c0,0.029,0,0.057,0,0.086c0,0.014,0,0.027,0,0.043
	c0,0.049,0.002,0.1,0.002,0.146c0,0.02,0,0.039,0,0.059c0.001,0.076,0.003,0.154,0.005,0.23c-0.005,0.057-0.009,0.117-0.011,0.176
	c0,0.012-0.002,0.021-0.002,0.031s0,0.02-0.001,0.027c-0.002,0.061-0.004,0.119-0.005,0.18c0,0.006,0,0.012,0,0.02
	c0,0.01,0,0.021,0,0.031c0,0.059,0,0.115,0.001,0.174c0,0.004,0,0.01,0,0.016c0,0.004,0,0.006,0,0.012c0,0.004,0,0.006,0,0.01
	c0.002,0.061,0.004,0.121,0.007,0.184c0,0.008,0,0.018,0.002,0.027c0,0.008,0,0.016,0.001,0.021c0.003,0.055,0.007,0.107,0.011,0.16
	c-0.292-0.09-0.577-0.186-0.855-0.297H9.011l0,0c-1.214-0.475-2.313-1.164-3.275-2.049C5.792,19.475,5.853,19.426,5.913,19.379z
	 M9.076,22.631c0.308,0.107,0.623,0.203,0.944,0.287l0.001,0.012l0.007,0.002c0.007,0.029,0.014,0.059,0.021,0.09l0.018,0.139
	l0.018,0.002c0.101,0.395,0.233,0.789,0.396,1.189c-0.713,0.332-1.46,0.539-2.197,0.654C8.412,24.275,8.678,23.479,9.076,22.631z
	 M16.7,22.91c0.292-0.078,0.579-0.164,0.857-0.26c0.392,0.838,0.654,1.621,0.779,2.342c-0.705-0.117-1.416-0.316-2.1-0.633
	C16.438,23.873,16.593,23.389,16.7,22.91z M17.63,21.596L17.63,21.596c-0.002,0-0.002,0-0.002,0
	c-0.25,0.096-0.506,0.184-0.768,0.264c0.035-0.449,0.027-0.893-0.023-1.322c0.002-0.182,0.002-0.367-0.002-0.555l0.002-0.002v-0.002
	c0.502-0.645,0.936-1.311,1.293-1.99c0.99,0.285,1.941,0.801,2.832,1.535C19.986,20.42,18.867,21.117,17.63,21.596z M18.55,17.104
	c0.183-0.428,0.338-0.863,0.467-1.301c0.131-0.416,0.236-0.844,0.302-1.275c1.399-0.152,3.05-0.15,4.851,0.205
	c-0.66,1.607-1.506,2.982-2.523,4.1C20.679,18.02,19.64,17.439,18.55,17.104z M24.517,13.814c-1.877-0.388-3.606-0.415-5.086-0.271
	c0.119-1.498-0.049-3.06-0.504-4.654c2.474-0.942,4.905-1.243,6.236-1.34c0.294-0.021,0.537,0.225,0.516,0.519
	C25.591,9.314,25.319,11.516,24.517,13.814z M13.728,1.6c1.033,1.195,2.949,3.68,4.009,6.732c-1.732,0.758-3.202,1.735-4.381,2.907
	l-0.009-0.009l-0.009,0.009c-1.173-1.165-2.632-2.138-4.354-2.896c1.06-3.057,2.979-5.547,4.013-6.744
	C13.19,1.377,13.535,1.377,13.728,1.6z M7.795,8.9c-0.452,1.589-0.62,3.146-0.5,4.638c-1.71-0.162-3.425-0.066-5.112,0.289
	c-0.299-0.853-0.519-1.669-0.678-2.392C1.204,10.07,1.071,8.87,1.015,8.066C0.994,7.772,1.238,7.53,1.53,7.551
	C2.863,7.645,5.305,7.947,7.795,8.9z M4.826,25.016c-0.844-0.111-1.584-0.285-2.135-0.438c-0.294-0.082-0.438-0.41-0.301-0.684
	c0.478-0.953,1.349-2.445,2.625-3.721c0.937,0.877,1.997,1.58,3.16,2.1c-0.469,1.01-0.767,1.963-0.885,2.842
	C6.389,25.17,5.537,25.111,4.826,25.016z M12.983,26.68c-0.375-0.477-0.839-1.135-1.241-1.914c0.591-0.369,1.129-0.816,1.609-1.33
	c0.483,0.521,1.03,0.971,1.628,1.344c-0.4,0.77-0.862,1.426-1.236,1.9C13.548,26.926,13.176,26.926,12.983,26.68z M21.884,25.016
	c-0.732,0.098-1.615,0.156-2.547,0.094c-0.119-0.867-0.41-1.811-0.873-2.811c1.187-0.521,2.267-1.232,3.221-2.125
	c1.277,1.275,2.148,2.766,2.629,3.721c0.136,0.273-0.008,0.602-0.301,0.684C23.459,24.73,22.722,24.904,21.884,25.016z"/>
</svg>
